<?xml version="1.0" standalone="no"?>
<!DOCTYPE svg PUBLIC "-//W3C//DTD SVG 1.1//EN" "http://www.w3.org/Graphics/SVG/1.1/DTD/svg11.dtd" >
<svg xmlns="http://www.w3.org/2000/svg">
<metadata>Generated by IcoMoon</metadata>
<defs>
<font id="ubisoft-icons" horiz-adv-x="512">
<font-face units-per-em="512" ascent="480" descent="-32" />
<missing-glyph horiz-adv-x="512" />
<glyph unicode="&#x20;" d="" horiz-adv-x="256" />
<glyph unicode="&#xe000;" d="M256 480c-141.373 0-256-114.606-256-256 0-141.291 114.627-256 256-256s256 114.709 256 256c0 141.394-114.606 256-256 256zM331.141 214.19l-140.023-79.483c-9.502-5.488-17.367 0-17.367 12.104v154.357c0 12.104 7.864 17.552 17.367 12.144l140.023-79.463c9.502-5.405 9.502-14.232 0-19.659z" />
<glyph unicode="&#xe001;" d="M256 480c-141.373 0-256-114.627-256-256s114.627-256 256-256c141.333 0 256 114.667 256 256 0 141.373-114.627 256-256 256zM164.599 132.557v169.165l169.104-169.165h-169.104zM347.382 146.237l-169.104 169.165h169.104v-169.165z" />
<glyph unicode="&#xe002;" d="M256 480c-141.373 0-256-114.606-256-256 0-141.312 114.627-256 256-256 141.353 0 256 114.688 256 256 0 141.394-114.627 256-256 256zM267.101 133.111v41.246h-112.128v99.328h112.149l-0.002 41.247 89.928-90.931-89.947-90.889z" />
<glyph unicode="&#xe003;" d="M278.856 292.587h-91.464v-137.174h137.195v91.423h-45.731zM256 480c-141.373 0-256-114.627-256-256 0-141.333 114.627-256 256-256s256 114.667 256 256c0 141.373-114.627 256-256 256zM347.423 246.835v-114.258h-182.845v182.845c0 0 114.278 0 137.134 0 45.712 0 45.712-45.712 45.712-45.712l-0.002-22.875z" />
<glyph unicode="&#xe004;" d="M256 480c-141.373 0-256-114.606-256-256 0-141.312 114.627-256 256-256s256 114.688 256 256c0 141.394-114.627 256-256 256zM219.423 132.599v182.845l109.712-91.422-109.712-91.423z" />
<glyph unicode="&#xe005;" d="M256 480c-141.373 0-256-114.647-256-256 0-141.27 114.627-256 256-256s256 114.73 256 256c0 141.353-114.627 256-256 256zM363.601 232.725l-107.601-95.704-107.601 95.702v51.405l107.601-95.621 107.601 95.621v-51.403z" />
<glyph unicode="&#xe006;" d="M256 480c-141.373 0-256-114.627-256-256 0-141.312 114.627-256 256-256 141.353 0 256 114.688 256 256 0 141.373-114.627 256-256 256zM222.064 234.999v80.424h67.831v-80.425h28.181l-62.096-63.467-62.096 63.467 28.181 0.001zM329.135 132.577h-146.269v51.139h21.443v-29.205h103.321v29.205h21.483v-51.139z" />
<glyph unicode="&#xe007;" d="M256 480c-141.373 0-256-114.627-256-256 0-141.333 114.627-256 256-256 141.333 0 256 114.667 256 256 0 141.373-114.627 256-256 256zM347.136 150.845h-82.657c0 0-21.463 0-37.662 0s-29.778 1.618-40.96 8.315c-11.285 6.595-14.48 14.050-17.367 21.094-2.867 7.045-3.707 16.649-3.707 24.904v91.955h44.381c0 0 0-72.15 0-81.408 0-17.224 4.259-21.257 8.52-24.187 4.198-2.969 11.939-3.625 15.565-3.625 3.44 0 30.105 0 40.939 0 9.565 0 16.978 0.533 22.221 4.792 5.059 4.24 6.717 12.165 6.677 20.010l-0.002 84.461h44.442l-0.389-146.31z" />
<glyph unicode="&#xe008;" d="M256 480c-141.373 0-256-114.627-256-256 0-141.333 114.627-256 256-256 141.333 0 256 114.667 256 256 0 141.373-114.627 256-256 256zM255.979 132.577c-9.625 0-17.469 8.765-17.469 19.579 0 10.793 7.824 19.558 17.469 19.558 9.646 0 17.469-8.765 17.469-19.558 0.002-10.815-7.822-19.579-17.469-19.579zM308.061 247.757c-1.864-5.141-4.199-9.565-6.902-13.251-2.765-3.625-5.776-6.738-9.135-9.257-3.4-2.621-6.451-5.201-9.502-7.741-2.969-2.581-5.714-5.55-8.008-8.888-2.376-3.358-3.789-7.454-4.259-12.451v-9.502h-30.126v11.183c0.451 7.168 1.699 13.168 3.666 17.962 1.966 4.854 4.301 8.929 7.045 12.369 2.662 3.421 5.509 6.307 8.457 8.806 2.99 2.539 5.755 4.997 8.295 7.496 2.499 2.499 4.547 5.243 6.123 8.233 1.536 2.99 2.253 6.717 2.13 11.183 0 7.659-1.68 13.353-4.997 16.957-3.379 3.625-8.008 5.509-14.008 5.509-3.973 0-7.454-0.88-10.363-2.621-2.786-1.801-5.161-4.096-7.087-7.024-1.885-2.909-3.256-6.288-4.137-10.198-1.045-3.85-1.373-8.111-1.373-12.575l-32.765-0.003c0.123 8.99 1.515 17.203 4.096 24.658 2.662 7.496 6.246 14.008 10.999 19.456 4.71 5.509 10.301 9.769 16.999 12.8 6.533 3.072 14.008 4.629 22.179 4.629 10.589 0 19.395-1.618 26.461-4.792 7.045-3.277 12.656-7.312 17.059-12.125 4.322-4.813 7.414-9.994 9.257-15.586 1.925-5.571 2.786-10.793 2.765-15.544-0.083-7.987-1.005-14.561-2.867-19.681z" />
<glyph unicode="&#xe009;" d="M315.453 272.107h-118.865c-3.625 0-6.493-2.909-6.493-6.472 0-3.625 2.888-6.512 6.493-6.512h118.887c3.584 0 6.512 2.909 6.493 6.512 0 3.565-2.93 6.472-6.514 6.472zM268.759 242.125h-72.171c-3.625 0-6.493-2.888-6.493-6.493 0-3.584 2.888-6.493 6.493-6.493h72.171c3.523 0 6.451 2.928 6.451 6.493 0.063 3.605-2.867 6.493-6.451 6.493zM256 480c-141.373 0-256-114.627-256-256s114.627-256 256-256 256 114.627 256 256-114.627 256-256 256zM356.557 181.504c0-6.921-5.714-12.575-12.595-12.575h-79.032l-65.126-62.341v62.341h-31.642c-6.922 0-12.595 5.653-12.595 12.575v110.755c0 6.903 5.714 12.534 12.595 12.534h175.779c6.963 0 12.595-5.939 12.595-12.861v-110.429h0.021z" />
<glyph unicode="&#xe00a;" d="M236.749 135.382c-1.331-1.577-2.786-2.846-4.424-3.849s-2.949-1.495-3.994-1.495c-1.331 0-2.334 0.389-2.949 1.168-0.573 0.717-0.88 1.885-0.88 3.645v54.947h-14.315v-59.883c0-4.219 0.861-7.496 2.518-9.584s4.137-3.216 7.454-3.216c2.704 0 5.469 0.717 8.336 2.295 2.867 1.454 5.611 3.747 8.274 6.575v-7.803h14.336v71.618h-14.336l-0.021-54.416zM253.482 270.121c2.171 0 3.912 0.573 5.222 1.802 1.271 1.208 1.945 2.846 1.945 4.957v43.008c0 1.843-0.696 3.113-2.007 4.198-1.289 1.126-3.030 1.618-5.161 1.618-1.946 0-3.563-0.491-4.813-1.618-1.208-1.126-1.802-2.416-1.802-4.198v-43.008c0-2.15 0.533-3.81 1.699-4.997 1.145-1.168 2.805-1.762 4.915-1.762zM289.075 190.699c-2.211 0-4.424-0.533-6.615-1.741-2.109-1.168-4.178-2.765-6.103-4.957v31.253h-14.48v-97.096h14.48v5.55c1.885-2.274 3.933-3.933 6.083-4.976 2.192-1.024 4.69-1.515 7.496-1.515 4.24 0 7.475 1.289 9.728 4.055 2.274 2.704 3.379 6.533 3.379 11.735v39.711c0 5.858-1.168 10.322-3.543 13.435-2.399 3.053-5.88 4.547-10.427 4.547zM288.317 134.912c0-2.253-0.43-3.952-1.229-4.957-0.861-1.045-2.109-1.536-3.891-1.536-1.187 0-2.334 0.307-3.421 0.777-1.127 0.512-2.274 1.373-3.4 2.56v44.625c0.983 1.003 1.966 1.741 2.969 2.192 1.003 0.389 2.007 0.675 3.011 0.675 1.925 0 3.44-0.594 4.445-1.885 1.024-1.147 1.515-3.113 1.515-5.55v-36.903zM154.358 201.207h16.71v-83.007h16.097v83.007h16.712v14.048h-49.52zM332.329 191.621c-6.451 0-11.632-1.925-15.709-5.897-4.035-3.912-6.083-8.99-6.083-15.216v-32.154c0-6.921 1.864-12.349 5.55-16.221 3.645-3.912 8.725-5.878 15.155-5.878 7.127 0 12.493 1.801 16.056 5.488 3.625 3.747 5.406 9.319 5.406 16.63v3.707h-14.745v-3.277c0-4.219-0.451-6.921-1.413-8.131-0.942-1.271-2.601-1.904-4.957-1.904-2.295 0-3.933 0.738-4.894 2.151-0.921 1.413-1.352 4.199-1.352 7.966v13.414h27.382v18.207c0 6.8-1.762 12.041-5.264 15.709-3.562 3.543-8.579 5.406-15.133 5.406zM337.962 163.421h-12.616v7.25c0 3.031 0.451 5.141 1.475 6.451 0.983 1.289 2.581 1.966 4.894 1.966 2.171 0 3.768-0.656 4.731-1.966 1.024-1.271 1.515-3.421 1.515-6.451v-7.25zM256 480c-141.373 0-256-114.627-256-256 0-141.291 114.627-256 256-256s256 114.709 256 256c0 141.373-114.627 256-256 256zM290.12 337.336h16.159v-60.539c0-1.885 0.349-3.133 1.045-4.035 0.635-0.922 1.741-1.229 3.256-1.229 1.187 0 2.683 0.533 4.526 1.659 1.783 1.106 3.461 2.519 4.957 4.219l-0.002 59.843h16.137v-78.807h-16.137v8.786c-2.949-3.277-6.041-5.735-9.319-7.394-3.216-1.639-6.328-2.581-9.339-2.581-3.768 0-6.512 1.25-8.418 3.584-1.885 2.355-2.846 5.878-2.846 10.547l-0.019 65.945zM230.256 319.293c0 6.123 2.171 10.957 6.493 14.623 4.343 3.666 10.179 5.427 17.511 5.427 6.677 0 12.125-1.885 16.405-5.632 4.24-3.891 6.37-8.827 6.37-14.869v-40.714c0-6.697-2.109-11.96-6.205-15.851-4.219-3.849-9.954-5.673-17.285-5.673-7.045 0-12.656 1.966-16.917 5.918-4.24 3.952-6.349 9.298-6.349 15.995l-0.023 40.776zM186.327 365.373l11.797-42.721 1.147 0.002 11.243 42.721h18.411l-21.115-62.587v-44.381h-18.144v42.312l-21.627 64.573 18.288 0.082zM397.538 140.257c0-28.591-23.163-51.753-51.712-51.753h-179.691c-28.549 0-51.733 23.163-51.733 51.754v41.451c0 28.591 23.184 51.773 51.733 51.773h179.691c28.549 0 51.712-23.203 51.712-51.773v-41.451z" />
<glyph unicode="&#xe00b;" d="M256 480c-141.373 0-256-114.627-256-256 0-141.291 114.627-256 256-256s256 114.709 256 256c0 141.373-114.606 256-256 256zM395.325 290.928c-4.219-3.85-14.95-8.929-16.405-13.968-1.003-3.543 0.226-9.421 0-13.291-1.68-32.931-11.448-58.859-23.613-80.159-27.587-48.209-78.295-84.848-152.822-83.619-36.803 0.451-64.43 14.008-88.555 29.123 30.678-8.745 69.632 4.834 86.733 20.664-30.762 1.373-50.769 16.712-58.224 39.382 8.233 0.205 19.435-1.454 28.509 0-28.488 8.683-44.791 29.533-46.673 64.88 6.84-3.85 16.077-5.345 26.666-5.469-13.56 10.242-33.159 30.415-27.896 58.185 1.536 8.048 5.079 14.071 9.093 20.603 31.314-34.57 68.424-63.386 128.594-69.059-3.337 47.186 14.070 73.565 52.121 79.504h10.301c10.957-1.783 19.067-5.325 26.685-10.977 3.993-2.99 8.151-8.458 11.51-8.479 6.921-0.246 14.089 5.099 20.010 8.479 6.307 3.542 11.346 7.087 18.207 10.281-4.69-13.046-13.333-25.232-22.467-33.341-2.089-1.945-6.267-4.505-5.469-5.469 13.64 1.72 20.438 13.845 31.723 17.92-3.663-5.653-2.087-19.826-8.026-25.192z" />
<glyph unicode="&#xe00c;" d="M256 480c-141.373 0-256-114.627-256-256 0-141.333 114.627-256 256-256s256 114.667 256 256c0 141.373-114.627 256-256 256zM342.221 101.653c-11.715-5.509-22.365-9.4-31.867-11.653-9.523-2.192-19.784-3.298-30.864-3.298-12.553 0-19.968 1.557-29.614 4.711-9.605 3.195-17.859 7.741-24.679 13.558-6.819 5.858-11.53 12.104-14.173 18.678-2.642 6.595-3.912 16.261-3.912 28.733v96.358l-37.312-0.001v38.912c10.793 3.44 23.286 8.56 30.986 14.992 7.68 6.574 13.865 14.397 18.535 23.573 4.649 9.135 7.843 20.911 9.584 35.021h39.056v-63.509h63.488v-49.029h-63.488v-70.451c0-15.974-0.184-25.13 1.475-29.635 1.68-4.526 5.897-9.175 10.466-11.837 6.103-3.605 13.026-5.529 20.848-5.529 13.906 0 27.729 4.485 41.472 13.517v-43.111z" />
<glyph unicode="&#xe00d;" d="M291.963 214.702c0 18.227-14.767 33.096-32.891 33.096-18.351 0-33.28-14.848-33.28-33.096s14.929-33.117 33.28-33.117c18.166 0.041 32.891 14.869 32.891 33.117zM360.243 340.88h-32.358c-4.055 0-7.536-3.337-7.536-7.414v-32.503c0-4.117 3.461-7.331 7.536-7.331h32.358c4.117 0 7.639 3.298 7.639 7.331v32.503c0 4.075-3.543 7.414-7.639 7.414zM256 480c-141.373 0-256-114.627-256-256 0-141.291 114.627-256 256-256s256 114.709 256 256c0 141.373-114.627 256-256 256zM392.623 142.080c0-30.127-24.371-54.661-54.723-54.661h-163.963c-30.024 0-54.559 24.534-54.559 54.661v107.725h69.017c-5.264-10.547-8.336-22.467-8.336-35.102 0-43.499 35.533-78.745 78.971-78.745 43.418 0 78.623 35.246 78.623 78.745 0 12.553-2.765 24.555-8.233 35.102h63.202l0.002-107.725zM203.734 214.702c0 30.371 24.822 55.133 55.338 55.133 30.289 0 54.947-24.72 54.947-55.133 0-30.433-24.658-55.193-54.947-55.193-30.515 0.040-55.338 24.76-55.338 55.193zM392.623 278.928h-88.022c-12.923 9.113-28.528 14.623-45.547 14.623-17.080 0-32.931-5.509-45.629-14.623h-94.046v27.034c0 30.166 24.534 54.661 54.579 54.661h163.963c30.331 0 54.702-24.494 54.702-54.661v-27.034z" />
<glyph unicode="&#xe00e;" d="M204.575 340.573c-21.995 0.615-36.782-21.462-32.973-50.381 3.789-28.938 24.72-52.899 46.715-53.535 21.995-0.656 36.741 22.221 32.931 51.097-3.768 28.959-24.697 52.12-46.673 52.817zM215.389 180.541c-32.768 0.389-62.178-19.968-62.178-44.421 0-24.925 23.696-45.691 56.483-45.691 46.080 0 62.199 19.498 62.199 44.421 0 2.99-0.368 5.96-1.065 8.867-3.625 14.070-16.405 21.013-34.181 33.464-6.493 2.050-13.599 3.279-21.257 3.36zM256 480c-141.373 0-256-114.627-256-256 0-141.291 114.627-256 256-256s256 114.709 256 256c0 141.373-114.627 256-256 256zM281.989 289.495c0-18.002-9.974-33.587-24.106-44.586-13.763-10.71-16.405-15.257-16.405-24.453 0-7.803 14.787-21.074 22.467-26.543 22.57-15.954 29.88-30.801 29.88-55.543 0-30.843-29.88-61.543-83.947-61.543-47.472 0-87.491 19.414-87.491 50.155 0 31.334 36.515 61.584 83.989 61.584 5.141 0 9.891 0.123 14.787 0.123-6.493 6.349-11.613 14.070-11.613 23.552 0 5.735 1.822 11.080 4.343 15.995-2.601-0.226-5.222-0.266-7.946-0.266-38.953 0-65.066 27.73-65.066 62.075 0 33.629 36.065 62.648 74.322 62.648 21.381 0 85.423 0 85.423 0l-19.088-13.926h-27.115c17.983-6.84 27.567-27.811 27.567-49.275zM404.767 302.499h-35.798v-35.779h-14.336v35.779h-35.758v14.214h35.779v35.778h14.336v-35.779h35.798v-14.213z" />
<glyph unicode="&#xe00f;" d="M256 480c-141.373 0-256-114.627-256-256 0-141.291 114.627-256 256-256s256 114.709 256 256c0 141.373-114.627 256-256 256zM324.178 313.621c-12.8 0-26.563 0-32.931 0-6.512 0-13.189-6.737-13.189-11.817s0-33.71 0-33.71 40.735 0 46.059 0c-1.864-25.744-5.693-49.315-5.693-49.315h-40.469v-135.065h-60.681v135.065h-29.43v49.152h29.43c0 0 0 32.912 0 40.243 0 7.414-1.494 56.606 62.115 56.606 8.499 0 27.894 0 44.81 0-0.021-21.279-0.021-44.523-0.021-51.159z" />
<glyph unicode="&#xe010;" d="M357.663 364.083h-78.869l-124.456-140.083 124.457-140.083h78.869l-124.457 140.083 124.456 140.083z" />
<glyph unicode="&#xe011;" d="M278.793 224l-124.457-140.083h78.869l124.458 140.083-124.457 140.083h-78.867l124.456-140.083z" />
<glyph unicode="&#xe012;" d="M386.089 295.639l-40.858 36.087-122.533-138.691-60.784 53.536-36.005-40.92 101.643-89.375 0.143 0.123z" />
<glyph unicode="&#xe013;" d="M256.021 311.203l75.243-76.881h-34.16v-97.525h-82.145v97.525h-34.222z" />
<glyph unicode="&#xe014;" d="M343.203 223.959l-76.882-75.243v34.161h-97.525v82.165h97.525v34.243z" />
<glyph unicode="&#xe015;" d="M255.958 370.125c-80.528 0-145.655-65.392-145.655-146.125 0-80.671 65.27-146.125 145.655-146.125 80.589 0 145.757 65.31 145.757 146.125 0 80.712-65.289 146.125-145.757 146.125zM254.506 136.346c-9.216 0-16.712 8.418-16.712 18.76s7.496 18.781 16.712 18.781c9.277 0 16.631-8.457 16.631-18.781 0.142-10.342-7.353-18.76-16.631-18.76zM305.705 246.754c-1.762-4.855-3.933-9.135-6.553-12.656-2.683-3.482-5.55-6.391-8.725-8.97-3.256-2.478-6.39-4.936-9.072-7.414-2.888-2.334-5.406-5.304-7.599-8.52-2.13-3.093-3.605-7.127-4.157-11.96v-8.969h-28.672v10.671c0.41 6.882 1.494 12.595 3.502 17.347 1.946 4.608 4.178 8.56 6.738 11.695 2.56 3.358 5.283 6.165 8.048 8.52 2.969 2.437 5.55 4.792 8.048 7.25 2.313 2.376 4.445 4.976 5.795 7.885 1.475 2.928 2.151 6.451 2.13 10.731 0 7.25-1.577 12.758-4.771 16.24-3.175 3.523-7.68 5.304-13.333 5.304-3.85 0-7.189-0.88-9.831-2.56-2.786-1.659-5.038-3.891-6.779-6.738-1.843-2.723-3.133-5.981-3.973-9.769-0.84-3.831-1.27-7.741-1.27-12.083l-31.375-0.001c0.102 8.623 1.434 16.487 3.912 23.573 2.458 7.25 5.96 13.414 10.445 18.637 4.506 5.283 9.891 9.36 16.24 12.33 6.391 2.99 13.373 4.505 21.238 4.505 10.077 0 18.453-1.536 25.169-4.69 6.717-3.011 12.309-6.984 16.384-11.511 4.014-4.689 7.107-9.707 8.867-14.971 1.843-5.304 2.683-10.321 2.683-14.929-0.409-7.743-1.248-14.029-3.091-18.944z" />
<glyph unicode="&#xe016;" d="M51.344 428.8h409.312v-86.877h-409.312zM51.344 267.438h409.312v-86.877h-409.312zM51.344 106.077h409.312v-86.877h-409.312z" />
<glyph unicode="&#xe017;" d="M299.336 224l-0.063 0.061 162.632 204.371h-86.528l-119.377-149.997-119.399 149.997h-86.507l162.651-204.493-162.651-204.371h86.507l119.399 149.997 119.377-149.997h86.528l-162.632 204.371z" />
<glyph unicode="&#xe018;" d="M26.009 221.747l220.365-198.656v81.101h239.616v238.080h-239.637v82.657l-220.344-203.183z" />
<glyph unicode="&#xe019;" d="M133.12 203.52h102.4v-102.4h40.96v102.4h102.4v40.96h-102.4v102.4h-40.96v-102.4h-102.4z" />
<glyph unicode="&#xe01a;" d="M133.12 244.48h245.76v-40.96h-245.76z" />
<glyph unicode="&#xe01b;" d="M170.475 335.881l-106.087 106.107-26.501-26.48 106.599-106.558h-73.584v-37.478h137.051v137.094h-37.478zM441.118 271.472v37.479h-73.584l106.577 106.558-26.501 26.48-106.065-106.107v72.685h-37.478v-137.094h37.478zM70.903 176.507v-37.457h73.584l-106.599-106.579 26.501-26.459 106.087 106.107v-72.685h37.478v137.073h-37.478zM441.118 139.050v37.457h-137.051v-137.073h37.478v72.685l106.065-106.107 26.501 26.459-106.577 106.579z" />
<glyph unicode="&#xe01c;" d="M423.505 428.821h-99.246v-37.315h72.357l-140.616-140.635-140.616 140.635h72.336v37.315h-136.541v-136.562h37.315v73.299l141.107-141.088-141.107-141.126v72.397h-37.315v-136.561h136.541v37.294h-73.297l141.577 141.599 141.559-141.599h-73.299v-37.294h136.562v136.561h-37.315v-72.397l-141.128 141.126 141.128 141.088v-73.299h37.315v136.562z" />
<glyph unicode="&#xe01d;" d="M506.061 42.159l-222.536 392.253c-15.176 26.808-40.038 26.808-55.091 0l-222.555-392.253c-15.197-26.726 0.184-48.682 34.099-48.682h432.209c33.771 0.041 49.192 21.995 33.873 48.682zM228.599 311.552h54.723v-166.277h-54.723v166.277zM255.918 53.791c-18.023 0-32.645 14.664-32.645 32.707 0 18.022 14.601 32.645 32.645 32.645s32.687-14.623 32.687-32.645c0-18.043-14.643-32.707-32.686-32.707z" />
<glyph unicode="&#xe01e;" d="M183.561 297.565h308.962v29.757c0 8.929-6.942 16.24-15.523 16.24h-237.016l-9.769 21.688-4.137 8.171c-4.587 8.969-15.237 16.24-23.839 16.24l-167.32 0.002c-8.52 0-15.483-7.271-15.483-16.24v-75.734l164.126-0.123zM498.935 271.841h-485.99c-8.541 0-14.255-6.021-12.697-13.394l3.891-17.817 39.363-182.272h425.002l39.322 182.272 3.952 17.817c1.392 7.373-4.261 13.393-12.841 13.393zM255.918 89.283l-63.549 64.963h28.835v82.371h69.427v-82.371h28.938l-63.651-64.963z" />
<glyph unicode="&#xe01f;" d="M227.123 198.954c-12.493-5.981-21.341-18.453-21.935-33.238-0.922-21.401 15.667-39.342 36.946-40.243 21.422-1.024 39.445 15.667 40.345 36.966 0.656 14.806-7.127 27.976-18.986 35.021 6.635-5.735 10.915-14.377 10.486-24.003-0.656-16.425-14.562-29.184-31.027-28.406-16.384 0.696-29.123 14.541-28.406 31.027 0.472 9.481 5.305 17.715 12.576 22.877v0zM377.61 377.416v0c-83.619 68.055-206.601 55.522-274.739-28.325-47.002-57.877-55.377-134.595-28.323-198.861l-1.331 5.059c-2.192 10.24-3.338 20.787-3.338 31.663 0 81.817 65.987 148.214 147.435 148.214 73.728 0 135.107-48.927 145.142-121.938 10.568-76.656-36.987-127.651-90.091-131.912-53.309-4.28-101.437 31.702-107.767 84.911-6.307 53.187 31.539 101.418 84.889 107.786 30.945 3.584 60.253-7.741 80.528-28.425-25.825 37.008-70.493 58.962-118.558 53.29-69.161-8.131-118.64-71.087-110.429-140.227 0 0 12.513-129.597 159.765-128.819 108.769 0.43 193.433 86.61 193.433 193.413 0.122 62.606-30.373 118.824-76.618 154.173v0zM255.958-8.981c-128.594 0-232.918 104.264-232.918 232.918 0 128.819 104.325 233.083 232.918 233.083 128.656 0 232.96-104.264 232.96-233.083 0.021-128.654-104.304-232.918-232.96-232.918v0zM255.958 480c-141.331 0-255.958-114.688-255.958-256.061 0-141.231 114.606-255.939 255.958-255.939 141.435 0 256.042 114.709 256.042 255.939 0 141.373-114.606 256.061-256.041 256.061v0zM317.829 134.584c25.477 31.539 20.705 77.845-10.711 103.485-31.539 25.621-77.865 20.829-103.547-10.629-17.715-21.79-20.869-50.79-10.671-75.080-3.85 16.486-0.286 34.467 11.183 48.661 19.824 24.248 55.317 27.832 79.647 8.171 24.248-19.702 27.811-55.275 8.171-79.544-11.427-14.131-28.365-21.279-45.219-20.889 25.702-5.037 53.351 3.993 71.147 25.825z" />
<glyph unicode="&#xe020;" d="M353.731 480l-240.621-299.745h123.883l-77.803-212.255 239.697 295.834h-124.825l79.669 216.166z" />
<glyph unicode="&#xe021;" d="M506.429 56.883c-0.286 48.865-40.099 88.31-88.925 88.043-27.853-0.144-52.285-13.353-68.403-33.526l-171.131 89.13c2.274 7.966 3.809 15.995 3.789 24.699-0.042 8.253-1.577 16.077-3.747 23.654l171.951 87.594c5.099-6.37 10.793-12.349 17.859-17.245 39.894-28.16 95.088-18.595 123.248 21.32 28.099 39.813 18.595 95.027-21.381 123.29-39.875 28.118-95.13 18.576-123.248-21.341-16.098-22.793-19.519-50.36-12.411-75.099l-171.929-87.552c-16.303 20.459-41.104 33.69-69.222 33.505-48.886-0.267-88.311-40.080-88.064-88.945 0.287-48.968 40.099-88.31 88.944-88.022 27.771 0.163 52.203 13.312 68.28 33.526l171.171-89.211c-2.211-7.864-3.81-15.954-3.768-24.576 0.265-48.968 40.059-88.311 88.965-88.125 48.846 0.245 88.229 40.037 88.024 88.882z" />
<glyph unicode="&#xe022;" d="M399.113 336.784h-286.227c-62.343 0-112.886-50.525-112.886-112.865 0-62.259 50.586-112.701 112.886-112.701h286.25c62.341 0 112.887 50.504 112.887 112.701-0.023 62.341-50.567 112.865-112.909 112.865zM64.737 189.265c-19.169 0-34.714 15.504-34.714 34.693 0 19.293 15.565 34.755 34.714 34.755s34.713-15.647 34.713-34.755-15.565-34.693-34.714-34.693zM390.226 134.728h-268.43v178.523h268.432l-0.002-178.523zM423.28 210.565c-7.414 0-13.414 6-13.414 13.353 0 7.434 6 13.353 13.414 13.353 7.331 0 13.353-5.918 13.353-13.353 0-7.352-6.021-13.353-13.353-13.353zM449.373 184.392c-7.352 0-13.373 5.981-13.373 13.353 0 7.496 6 13.496 13.373 13.496 7.454 0 13.456-6 13.456-13.496 0.019-7.353-6.002-13.353-13.456-13.353zM449.373 236.719c-7.352 0-13.373 6-13.373 13.415 0 7.331 6 13.312 13.373 13.312 7.454 0 13.456-5.981 13.456-13.312 0.019-7.415-6.002-13.415-13.456-13.415zM475.525 210.565c-7.394 0-13.394 6-13.394 13.353 0 7.434 6 13.353 13.394 13.353s13.414-5.918 13.414-13.353c0-7.352-6.021-13.353-13.414-13.353z" />
<glyph unicode="&#xe023;" d="M349.512 480h-187.085c-21.75 0-39.363-17.613-39.363-39.363v-433.255c0-21.853 17.613-39.382 39.363-39.382h187.106c21.811 0 39.424 17.592 39.424 39.382v433.255c-0.021 21.729-17.634 39.363-39.445 39.363zM237.097 449.238h37.827c5.202 0 9.502-4.321 9.502-9.544 0-5.325-4.28-9.523-9.502-9.523h-37.827c-5.202 0-9.463 4.199-9.463 9.523-0.021 5.224 4.24 9.544 9.463 9.544zM256-7.671c-13.782 0-24.965 11.141-24.965 24.904 0 13.865 11.161 24.841 24.965 24.841s24.904-11.161 24.904-24.841c0.021-13.743-11.122-24.904-24.904-24.904zM368.005 59.729h-224.010v338.392h224.010v-338.392z" />
<glyph unicode="&#xe024;" d="M302.55 102.575c0-8.745-6.921-21.218-15.483-21.218h-62.075c-8.581 0-15.544 12.472-15.544 21.217h-209.448v-15.544c0-8.786 6.942-15.831 15.523-15.831h480.973c8.541 0 15.483 7.065 15.483 15.831v15.544h-209.429zM302.55 134.256h152.576v226.714c0 8.765-6.963 15.83-15.504 15.83l-367.247 0.002c-8.541 0-15.504-7.087-15.504-15.83v-226.611l245.679-0.104z" />
<glyph unicode="&#xe025;" d="M456.541 343.522c-19.805 36.475-53.495 38.461-86.179 30.966-41.923-9.544-78.112-14.377-114.361-14.377-36.229 0-72.418 4.813-114.339 14.357-32.686 7.517-66.397 5.53-86.179-30.966-28.592-47.185-94.599-238.305-23.881-268.227 69.162-29.265 105.104 72.089 159.907 72.089h128.943c54.805 0 90.747-101.334 159.97-72.089 70.677 29.942 4.691 221.063-23.878 268.248zM124.253 209.459c-21.934 0-39.689 17.757-39.689 39.671 0 21.811 17.776 39.608 39.69 39.608s39.671-17.776 39.671-39.608c-0.001-21.913-17.757-39.671-39.671-39.671zM352.4 233.81c-8.478 0-15.339 6.861-15.339 15.319 0 8.336 6.84 15.319 15.339 15.319 8.438 0 15.318-6.84 15.318-15.319-0.021-8.458-6.882-15.319-15.318-15.319zM382.28 203.95c-8.499 0-15.339 6.882-15.339 15.339 0 8.315 6.819 15.299 15.339 15.299 8.418 0 15.299-6.861 15.299-15.299s-6.882-15.339-15.299-15.339zM382.28 263.671c-8.499 0-15.339 6.902-15.339 15.319 0 8.438 6.819 15.339 15.339 15.339 8.418 0 15.299-6.861 15.299-15.339-0.002-8.458-6.882-15.319-15.299-15.319zM412.099 233.81c-8.438 0-15.299 6.861-15.299 15.319 0 8.336 6.84 15.319 15.299 15.319 8.478 0 15.381-6.84 15.381-15.319-0.002-8.478-6.902-15.319-15.381-15.319z" />
<glyph unicode="&#xe026;" d="M458.179 53.769l-100.515 100.515c22.61 28.856 36.208 65.085 36.208 104.509 0 93.738-76.288 170.025-170.045 170.025-93.717 0-170.005-76.288-170.005-170.025s76.288-170.025 170.005-170.025c36.72 0 70.677 11.837 98.53 31.702l101.274-101.253 34.549 34.552zM102.728 258.774c0 66.786 54.313 121.097 121.079 121.097 66.806 0 121.119-54.313 121.119-121.097s-54.313-121.097-121.118-121.097c-66.767 0-121.079 54.333-121.079 121.097z" />
<glyph unicode="&#xe027;" d="M0 399.001v-122.449l256-227.533 256 227.512v122.471l-256-227.533-256 227.533z" />
<glyph unicode="&#xe028;" d="M256 480c-141.393 0-256-114.586-256-256.041 0-141.373 114.606-255.959 256-255.959 141.353 0 256 114.586 256 255.958 0 141.456-114.647 256.041-256 256.041zM383.651 122.461h-115.896c0 0-30.045 0-52.675 0-22.589 0-41.616 2.295-57.467 11.49-15.791 9.257-20.194 19.517-24.29 29.347-4.014 9.81-5.222 23.142-5.222 34.529l0.001 127.651h62.178c0 0 0-100.168 0-113.008 0-23.901 5.96-29.45 11.837-33.526 5.939-4.157 16.855-4.997 21.73-4.997 4.915 0 42.189 0 57.385 0 13.475 0 23.798 0.717 31.13 6.677 7.127 5.816 9.36 16.855 9.36 27.69l-0.002 117.165h62.238l-0.307-203.018z" />
<glyph unicode="&#xe029;" d="M471.634 196.864l-402.043-220.139c-27.361-15.134-49.889 0.082-49.889 33.608l0.002 427.334c0 33.505 22.528 48.681 49.889 33.69l402.043-219.955c27.523-15.032 27.523-39.506-0.002-54.537z" />
<glyph unicode="&#xe02a;" d="M256.061 296.97l0.082-54.805-98.693 82.229 98.672 82.248-0.082-55.091c85.627 0 155.034-69.551 155.034-155.095 0-85.565-69.55-155.075-155.075-155.075-85.769 0-155.115 69.55-155.115 155.075 0 20.050 3.85 39.322 10.793 56.955l51.999-16.691c-5.53-12.329-8.397-25.989-8.397-40.264 0-55.562 45.159-100.68 100.72-100.68 55.522 0 100.638 45.117 100.638 100.68 0.022 55.355-45.055 100.514-100.576 100.514z" />
<glyph unicode="&#xe02b;" d="M255.918 370.125c-80.528 0-145.592-65.331-145.592-146.125 0-80.671 65.29-146.125 145.592-146.125 80.649 0 145.757 65.289 145.757 146.125-0.002 80.712-65.271 146.125-145.757 146.125zM338.453 165.038l-23.552-23.51-58.922 58.88-58.839-58.88-23.594 23.51 58.941 58.962-58.941 58.88 23.594 23.552 58.839-58.922 58.922 58.922 23.552-23.552-58.88-58.88 58.88-58.962z" />
<glyph unicode="&#xe02c;" d="M254.754 223.983l-242.089-256h82.261l242.005 256-242.005 256h-82.261l242.089-256zM254.754 223.983z" horiz-adv-x="341" />
<glyph unicode="&#xe02d;" d="M83.627 223.983l242.107-256h-82.261l-242.006 256 242.006 256h82.261l-242.107-256zM83.627 223.983z" horiz-adv-x="323" />
<glyph unicode="&#xe02e;" d="M23.32-8.774h430.498l-430.498 430.639v-430.639zM58.136 456.68l430.498-430.639v430.639h-430.498zM58.136 456.68z" />
<glyph unicode="&#xe02f;" d="M227.246 224l124.539 140.083h-67.011l-124.56-140.083 124.539-140.083h67.011l-124.519 140.083z" />
<glyph unicode="&#xe030;" d="M160.214 83.917h67.011l124.539 140.083-124.539 140.083h-67.011l124.539-140.083-124.539-140.083z" />
<glyph unicode="&#xe031;" d="M321.515 143.329c-30.413 68.834-71.087 46.224-58.573 192.656-42.209-30.781-60.539-55.624-64.266-104.714-4.566-64.082 43.397-133.161 55.091-150.835 0 0-46.080-12.309-93.45 22.365 0 0-3.563-18.902 4.259-42.333 8.397-25.334 21.995-46.879 58.41-66.846-79.155 4.997-146.064 51.978-155.874 133.55-8.213 67.952 26.419 92.959 37.213 103.547 0 0 7.517-27.669 25.272-39.629 20.377-13.803 27.362-10.608 27.362-10.608-36.003 49.583-27.832 112.599-10.773 146.883 32.542 65.249 158.106 128.777 162.467 126.997 0 0-12.963-133.059 28.181-173.568 1.597 24.802 14.418 50.032 47.863 64.491-25.456-121.221 194.807-247.808-71.639-351.642 21.625 23.2 38.931 81.281 8.456 149.685z" />
<glyph unicode="&#xe600;" d="M292.045 458.23l33.3-60.231-67.993-119.419-68.342 119.255 33.464 60.375 69.57 0.021zM304.128 478.71l-93.696-0.041-44.933-80.998 91.894-160.379 91.423 160.542-44.688 80.876zM279.859 237.353l94.269 160.625 89.579 0.061 48.394-81.346-48.394-79.339zM232.53 237.189l-95.068 160.317-90.931 0.062-46.531-81.264 47.718-79.114zM258.007 209.418l-91.894-160.358 44.933-80.998 93.696-0.062 44.708 80.875zM280.433 209.418l94.31-158.802h89.579l46.858 79.872-46.858 78.93zM233.165 209.234l-94.228-158.802h-90.603l-47.636 78.643 48.21 79.892z" />
<glyph unicode="&#xe601;" d="M40.64 61.76l216.18 174.405 11.195-13.878-216.18-174.406-11.195 13.877zM263.607 228.927l99.218-198.126-15.946-7.986-99.218 198.126 15.946 7.986zM259.452 233.635l194.572-38.414-3.454-17.493-194.572 38.414 3.454 17.494zM246.687 228.57l78.784 196.832 16.551-6.625-78.784-196.832-16.552 6.625zM251.086 217.546l-197.879 198.271 12.618 12.593 197.879-198.271-12.619-12.594zM117.819 421.392c0-31.596-26.26-57.211-58.654-57.211s-58.654 25.614-58.654 57.211c0 31.596 26.261 57.211 58.654 57.211s58.654-25.614 58.654-57.211zM393.467 421.392c0-31.596-26.26-57.211-58.654-57.211s-58.654 25.614-58.654 57.211c0 31.596 26.26 57.211 58.654 57.211s58.654-25.614 58.654-57.211zM510.774 185.618c0-31.596-26.26-57.211-58.654-57.211s-58.654 25.614-58.654 57.211c0 31.596 26.26 57.211 58.654 57.211s58.654-25.614 58.654-57.211zM413.44 27.771c0-31.596-26.26-57.211-58.654-57.211s-58.654 25.614-58.654 57.211c0 31.596 26.26 57.211 58.654 57.211s58.654-25.614 58.654-57.211zM117.819 65.91c0-31.596-26.26-57.211-58.654-57.211s-58.654 25.614-58.654 57.211c0 31.596 26.261 57.211 58.654 57.211s58.654-25.614 58.654-57.211zM354.471 225.067c0-52.846-43.921-95.685-98.099-95.685s-98.099 42.839-98.099 95.685c0 52.846 43.921 95.685 98.099 95.685s98.099-42.839 98.099-95.685z" />
<glyph unicode="&#xe602;" d="M256 480c-141.374 0-256-114.626-256-256s114.626-256 256-256 256 114.626 256 256-114.626 256-256 256zM193.351 117.913h-51.856v166.81h51.856v-166.81zM167.076 305.183c-16.384 0-26.931 11.591-26.931 25.928 0 14.663 10.895 25.928 27.627 25.928s26.952-11.264 27.279-25.928c-0.020-14.336-10.567-25.928-27.976-25.928zM382.649 117.913h-51.835v92.447c0 21.483-7.495 36.147-26.255 36.147-14.315 0-22.856-9.892-26.624-19.456-1.351-3.4-1.7-8.172-1.7-12.964v-96.174h-51.835v113.582c0 20.808-0.676 38.195-1.372 53.227h45.035l2.396-23.204h1.003c6.841 10.916 23.531 26.952 51.528 26.952 34.12 0 59.678-22.856 59.678-71.987v-98.57z" />
<glyph unicode="&#xf000;" d="M0 480l512-512h-512z" />
</font>
</defs>
</svg>
