<?xml version="1.0" encoding="utf-8"?>
<!-- Generator: Adobe Illustrator 16.0.0, SVG Export Plug-In . SVG Version: 6.00 Build 0)  -->
<!DOCTYPE svg PUBLIC "-//W3C//DTD SVG 1.1//EN" "http://www.w3.org/Graphics/SVG/1.1/DTD/svg11.dtd">
<svg version="1.1" xmlns="http://www.w3.org/2000/svg" xmlns:xlink="http://www.w3.org/1999/xlink" x="0px" y="0px" width="200px"
	 height="200px" viewBox="0 0 200 200" enable-background="new 0 0 200 200" xml:space="preserve">
<g id="Layer_1" display="none">
	<rect display="inline" stroke="#000000" stroke-miterlimit="10" width="200" height="200"/>
</g>
<g id="Layer_2" display="none">
	<g display="inline">
		<path fill="#FFFFFF" d="M100.145,40.512c-26.753,0-48.446,21.694-48.446,48.449c0,26.758,21.693,48.446,48.446,48.446
			c26.758,0,48.449-21.688,48.449-48.446C148.594,62.206,126.903,40.512,100.145,40.512z M100.145,133.049
			c-24.344,0-44.085-19.737-44.085-44.088c0-24.346,19.742-44.087,44.085-44.087c24.348,0,44.085,19.742,44.085,44.087
			C144.23,113.312,124.493,133.049,100.145,133.049z"/>
		<g>
			<g>
				<g>
					<path fill="#FFFFFF" d="M100.961,154.059v0.234c0,0,5.14,0.026,5.123,0c0-2.322,0.117-5.343-5.462-5.343h-0.005H83.794
						c0,0,0,4.773,0,6.607c0,1.841,0.833,4.971,5.188,4.971c3.609,0,12.146,0,12.146,0s0,0.834,0,1.035c0,1.188-0.114,1.71-2.4,1.71
						c0,0-7.931,0-8.975,0c-1.044,0-0.957-0.869-0.957-0.869v-0.325h-5.173c0,0,0,0.73,0,1.459c0,1.665,0.683,4.034,4.544,4.034
						c0,0,12.167,0,13.318,0c2.513,0,5.233-0.94,5.233-4.188c0-0.757,0-1.894,0-3.067c0-1.851-0.442-4.225-4.653-4.225H92.54
						c-2.76,0-3.191-0.64-3.191-1.89v-0.961c0,0,10.346,0,10.694,0C100.407,153.242,100.961,153.392,100.961,154.059z"/>
					<path fill="#FFFFFF" d="M36.111,159.59c0,1.184-0.24,2.025-0.711,2.518c-0.476,0.493-1.291,0.735-2.447,0.735h-5.606
						c-1.156,0-1.968-0.242-2.443-0.735c-0.477-0.492-0.713-1.334-0.713-2.518v-10.637H18.54v11.854c0,2.308,0.61,4.018,1.833,5.114
						c1.222,1.106,3.133,1.65,5.73,1.65h15.659l0.007-18.619h-5.658V159.59z"/>
					<path fill="#FFFFFF" d="M66.605,158.011c0.952-0.258,1.645-0.673,2.075-1.231c0.435-0.548,0.646-1.536,0.646-2.984
						c0-1.79-0.525-3.036-1.584-3.755c-1.063-0.719-2.767-1.087-5.109-1.087H46.352v18.619h18.013c1.799,0,3.193-0.352,4.163-1.046
						c0.975-0.699,1.458-2.158,1.458-4.023c0-1.429-0.244-2.482-0.76-3.165C68.724,158.642,67.842,158.203,66.605,158.011z
						 M51.988,153.242h10.026c1.104,0,1.659,0.49,1.659,1.455c0,0.535-0.132,1.035-0.405,1.252
						c-0.272,0.215-0.688,0.314-1.254,0.314H51.988V153.242z M63.673,162.983c-0.337,0.196-0.845,0.29-1.526,0.29H51.988v-3.202
						h10.158c0.666,0,1.167,0.117,1.518,0.344c0.349,0.222,0.52,0.745,0.52,1.328C64.184,162.247,64.019,162.782,63.673,162.983z"/>
					<rect x="73.637" y="148.953" fill="#FFFFFF" width="5.651" height="18.619"/>
					<polygon fill="#FFFFFF" points="138.563,167.572 144.211,167.572 144.211,161.539 157.182,161.539 157.182,156.803 
						144.211,156.803 144.211,153.672 157.817,153.672 157.817,148.953 138.563,148.953 					"/>
					<polygon fill="#FFFFFF" points="159.944,148.953 159.944,153.646 167.894,153.646 167.894,167.572 173.553,167.572 
						173.553,153.646 181.503,153.646 181.503,148.953 					"/>
					<path fill="#FFFFFF" d="M117.756,148.953c-3.535,0-4.833,0.534-6.086,1.438c-1.257,0.9-2.036,2.473-2.036,5.013v5.501
						c0,2.563,0.664,4.32,1.995,5.262c1.336,0.946,3.093,1.405,6.127,1.405h8.576c3.033,0,4.63-0.412,5.973-1.37
						c1.327-0.946,1.944-2.42,1.944-5.297v-11.952H117.756z M128.545,159.326c0,1.526-0.149,2.206-0.627,2.712
						c-0.475,0.51-1.298,0.805-2.584,0.805h-6.804c-1.466,0-2.169-0.332-2.586-0.819c-0.418-0.484-0.646-1.318-0.646-2.872v-1.991
						c0-1.271,0.243-2.034,0.722-2.619c0.488-0.596,1.419-0.892,2.813-0.892h9.712V159.326z"/>
				</g>
			</g>
			<g>
				<path fill="#FFFFFF" d="M189.117,151.355c0,1.527-1.236,2.771-2.756,2.771c-1.526,0-2.764-1.244-2.764-2.771
					c0-1.528,1.237-2.763,2.764-2.763C187.881,148.593,189.117,149.835,189.117,151.355z M184.011,151.355
					c0,1.358,1.058,2.455,2.351,2.455c1.291,0,2.341-1.132,2.341-2.527c0-1.269-1.05-2.309-2.341-2.309
					C185.06,148.975,184.011,150.039,184.011,151.355z M185.085,149.787h1.544c0.739,0,1.002,0.244,1.002,0.936
					c0,0.528-0.362,0.819-0.712,0.819c0.305,0,0.671,0.381,0.671,0.722v0.611h-0.538v-0.513c0-0.356-0.367-0.591-0.759-0.591h-0.672
					v1.104h-0.536V149.787z M186.268,151.316c0.56,0,0.825-0.106,0.825-0.507c0-0.487-0.072-0.567-0.488-0.567h-0.983v1.074H186.268
					z"/>
			</g>
		</g>
	</g>
</g>
<g id="Layer_4">
	<path fill="#FFFFFF" d="M94.683,93.693c-2.359,1.135-4.035,3.495-4.153,6.293c-0.176,4.043,2.959,7.461,7.002,7.633
		c4.044,0.177,7.461-2.961,7.636-7.004c0.122-2.797-1.347-5.294-3.596-6.625c1.279,1.081,2.068,2.73,1.988,4.539
		c-0.129,3.109-2.763,5.521-5.869,5.388c-3.108-0.136-5.516-2.762-5.384-5.868C92.386,96.233,93.309,94.666,94.683,93.693z"/>
	<path fill="#FFFFFF" d="M123.164,59.92l0.006,0.005c-15.835-12.865-39.127-10.483-51.995,5.354
		c-8.904,10.961-10.484,25.476-5.372,37.644l-0.249-0.97c-0.417-1.931-0.636-3.936-0.636-5.992
		c0-15.489,12.492-28.045,27.902-28.045c13.957,0,25.574,9.26,27.476,23.083c1.997,14.513-6.995,24.158-17.056,24.958
		c-10.105,0.805-19.193-5.992-20.393-16.058c-1.194-10.07,5.993-19.195,16.061-20.395c5.866-0.699,11.415,1.46,15.262,5.37
		c-4.882-7.003-13.36-11.163-22.427-10.083c-13.095,1.559-22.455,13.438-20.898,26.536c0,0,2.359,24.544,30.227,24.397
		c20.589-0.106,36.613-16.39,36.613-36.613C137.685,77.252,131.912,66.611,123.164,59.92z"/>
	<path fill="#FFFFFF" d="M111.839,105.881c4.849-5.964,3.943-14.734-2.024-19.584c-5.968-4.849-14.738-3.941-19.593,2.027
		c-3.352,4.128-3.948,9.598-2.021,14.186c-0.725-3.113-0.058-6.515,2.114-9.186c3.729-4.588,10.466-5.286,15.054-1.557
		c4.587,3.727,5.285,10.467,1.56,15.053c-2.172,2.672-5.365,4.021-8.559,3.946C103.248,111.717,108.48,110.011,111.839,105.881z"/>
</g>
<g id="Layer_3">
</g>
</svg>
