<?xml version="1.0" encoding="utf-8"?>
<!-- Generator: Adobe Illustrator 16.0.0, SVG Export Plug-In . SVG Version: 6.00 Build 0)  -->
<!DOCTYPE svg PUBLIC "-//W3C//DTD SVG 1.1//EN" "http://www.w3.org/Graphics/SVG/1.1/DTD/svg11.dtd">
<svg version="1.1" id="Layer_1" xmlns="http://www.w3.org/2000/svg" xmlns:xlink="http://www.w3.org/1999/xlink" x="0px" y="0px"
	 width="104px" height="224px" viewBox="0 0 104 224" enable-background="new 0 0 104 224" xml:space="preserve">
<g id="hide_me" display="none">
	<rect x="-21.375" y="-9.375" display="inline" fill="#EEEEEE" width="30" height="30"/>
	<rect x="8.625" y="-9.375" display="inline" fill="#D1D1D1" width="30" height="30"/>
	<rect x="-21.375" y="20.625" display="inline" fill="#D1D1D1" width="30" height="30"/>
	<rect x="8.625" y="20.625" display="inline" fill="#EEEEEE" width="30" height="30"/>
	<rect x="-21.375" y="50.625" display="inline" fill="#EEEEEE" width="30" height="30"/>
	<rect x="8.625" y="50.625" display="inline" fill="#D1D1D1" width="30" height="30"/>
	<rect x="-21.375" y="80.625" display="inline" fill="#D1D1D1" width="30" height="30"/>
	<rect x="8.625" y="80.625" display="inline" fill="#EEEEEE" width="30" height="30"/>
</g>
<path fill="#FFFFFF" d="M19.401,15.575l-8.205,4.658c-0.558,0.32-1.018-0.002-1.018-0.711v-9.043c0-0.709,0.46-1.031,1.018-0.713
	l8.205,4.654C19.962,14.738,19.962,15.255,19.401,15.575z"/>
<polygon fill="#FFFFFF" points="45.652,20.356 45.652,17.937 39.083,17.937 39.083,12.121 45.652,12.121 45.652,9.701 
	50.921,15.028 "/>
<g>
	<polygon fill="#FFFFFF" points="9.645,50.356 19.553,50.356 9.645,40.445 	"/>
	<polygon fill="#FFFFFF" points="10.447,39.644 20.356,49.555 20.356,39.644 	"/>
</g>
<g>
	<polygon fill="#FFFFFF" points="48.638,44.357 46.985,44.357 46.985,39.642 43.013,39.642 43.013,44.357 41.36,44.357 45,48.074 	
		"/>
	<polygon fill="#FFFFFF" points="48.024,47.361 48.024,49.071 41.974,49.071 41.974,47.361 40.716,47.361 40.716,50.358 
		41.19,50.358 41.974,50.358 48.024,50.358 48.212,50.358 49.286,50.358 49.286,47.361 	"/>
</g>
<path fill="#FFFFFF" d="M17.679,69.643c-1.34,0-8.036,0-8.036,0v10.715h10.714v-6.695v-1.338
	C20.357,72.323,20.357,69.643,17.679,69.643z M19.018,79.018h-8.037v-8.035h5.357v2.68h2.68V79.018z"/>
<polygon fill="#FFFFFF" points="41.792,80.346 41.792,69.655 48.207,75.001 "/>
<path fill="#FFFFFF" d="M20.337,109.286h-4.849c0,0-1.258,0-2.204,0c-0.952,0-1.743-0.095-2.404-0.486
	c-0.66-0.389-0.848-0.821-1.017-1.235c-0.167-0.414-0.218-0.978-0.218-1.459v-5.389h2.602c0,0,0,4.229,0,4.77
	c0,1.01,0.249,1.246,0.497,1.418c0.246,0.174,0.702,0.21,0.914,0.21c0.202,0,1.763,0,2.4,0c0.559,0,0.994-0.03,1.302-0.282
	c0.294-0.246,0.393-0.712,0.39-1.17v-4.947h2.604L20.337,109.286z"/>
<path fill="#FFFFFF" d="M33.028,136.783c-1.322,0-2.736,0-3.396,0c-0.67,0-1.358,0.688-1.358,1.217c0,0.521,0,3.475,0,3.475
	s4.2,0,4.75,0c-0.194,2.654-0.588,5.088-0.588,5.088h-4.172v13.92h-6.259v-13.92h-3.033V141.5h3.033c0,0,0-3.396,0-4.146
	c0-0.766-0.153-5.838,6.402-5.838c0.877,0,2.875,0,4.621,0C33.028,133.705,33.028,136.098,33.028,136.783z"/>
<path fill="#FFFFFF" d="M92.09,138.558c-0.434,0.396-1.541,0.927-1.689,1.438c-0.104,0.363,0.021,0.979,0,1.373
	c-0.174,3.385-1.182,6.062-2.438,8.256c-2.842,4.963-8.068,8.744-15.752,8.625c-3.793-0.057-6.645-1.438-9.129-3
	c3.162,0.904,7.18-0.502,8.943-2.129c-3.172-0.144-5.234-1.728-6.004-4.062c0.85-0.021,2.004,0.146,2.939,0
	c-2.939-0.897-4.617-3.051-4.812-6.688c0.707,0.397,1.656,0.554,2.75,0.563c-1.402-1.062-3.424-3.146-2.879-6
	c0.158-0.823,0.521-1.45,0.939-2.127c3.225,3.562,7.051,6.535,13.254,7.127c-0.344-4.866,1.449-7.592,5.375-8.188h1.062
	c1.131,0.174,1.963,0.545,2.746,1.123c0.412,0.312,0.844,0.865,1.189,0.873c0.715,0.021,1.451-0.531,2.061-0.873
	c0.65-0.371,1.172-0.728,1.879-1.062c-0.482,1.345-1.375,2.601-2.316,3.438c-0.217,0.195-0.646,0.463-0.562,0.562
	c1.404-0.188,2.105-1.438,3.27-1.854C92.541,136.544,92.703,138.001,92.09,138.558z"/>
<g>
	<path fill="#FFFFFF" d="M81.82,194.51c0.193,0.244,0.473,0.367,0.869,0.367c0.31,0,0.63-0.09,0.961-0.262
		c0.335-0.172,0.653-0.438,0.957-0.771v0.904h1.664v-8.137h-1.664v6.178c-0.164,0.166-0.33,0.322-0.518,0.438
		c-0.192,0.107-0.348,0.17-0.469,0.17c-0.146,0-0.269-0.041-0.335-0.127c-0.068-0.1-0.104-0.23-0.104-0.418v-6.24h-1.662
		l0.008,6.812C81.528,193.906,81.624,194.275,81.82,194.51z"/>
	<path fill="#FFFFFF" d="M75.995,194.328c0.438,0.41,1.017,0.611,1.743,0.611c0.757,0,1.342-0.191,1.78-0.588
		c0.427-0.408,0.641-0.951,0.641-1.646v-4.201c0-0.623-0.208-1.125-0.646-1.52c-0.438-0.4-1.001-0.588-1.689-0.588
		c-0.759,0-1.366,0.186-1.807,0.561c-0.447,0.375-0.672,0.875-0.672,1.52l0.004,4.207C75.35,193.367,75.558,193.92,75.995,194.328z
		 M77.058,188.404c0-0.182,0.063-0.332,0.188-0.438c0.129-0.107,0.294-0.166,0.497-0.166c0.222,0,0.397,0.059,0.533,0.166
		c0.133,0.115,0.206,0.256,0.206,0.438v4.434c0,0.227-0.069,0.398-0.202,0.521c-0.133,0.127-0.308,0.188-0.537,0.188
		c-0.221,0-0.388-0.062-0.508-0.188c-0.117-0.125-0.177-0.293-0.177-0.521V188.404z"/>
	<polygon fill="#FFFFFF" points="71.159,194.752 73.031,194.752 73.031,190.174 75.209,183.723 73.313,183.723 72.154,188.129 
		72.036,188.129 70.817,183.723 68.931,183.734 71.159,190.385 	"/>
	<path fill="#FFFFFF" d="M86.445,203.799c0-0.312-0.053-0.535-0.158-0.668c-0.092-0.133-0.254-0.201-0.479-0.201
		c-0.239,0-0.406,0.068-0.51,0.201c-0.102,0.137-0.151,0.357-0.151,0.668v0.742h1.302L86.445,203.799z"/>
	<path fill="#FFFFFF" d="M81.167,203.09c-0.095-0.125-0.259-0.188-0.448-0.188c-0.106,0-0.208,0.016-0.312,0.064
		c-0.104,0.055-0.204,0.125-0.304,0.229v4.602c0.123,0.125,0.238,0.209,0.352,0.271c0.111,0.049,0.229,0.078,0.354,0.078
		c0.181,0,0.31-0.053,0.396-0.156c0.081-0.115,0.127-0.283,0.127-0.512l-0.007-3.822C81.324,203.406,81.273,203.219,81.167,203.09z"
		/>
	<path fill="#FFFFFF" d="M87.26,197.326H68.737c-2.945,0-5.331,2.389-5.331,5.332v4.273c0,2.949,2.386,5.348,5.331,5.348H87.26
		c2.937,0,5.333-2.4,5.333-5.348v-4.273C92.593,199.717,90.197,197.326,87.26,197.326z M72.629,200.65h-1.722v8.557h-1.663v-8.557
		h-1.722v-1.451h5.106V200.65z M77.483,209.207h-1.477V208.4c-0.273,0.297-0.559,0.525-0.854,0.68
		c-0.292,0.16-0.583,0.238-0.854,0.238c-0.334,0-0.599-0.113-0.771-0.334c-0.173-0.217-0.26-0.549-0.26-0.988v-6.174h1.477v5.666
		c0,0.174,0.039,0.301,0.102,0.377c0.062,0.08,0.165,0.117,0.304,0.117c0.1,0,0.244-0.051,0.41-0.152
		c0.169-0.094,0.312-0.236,0.458-0.396l-0.011-5.609h1.477V209.207z M82.854,207.682c0,0.521-0.119,0.934-0.354,1.205
		c-0.229,0.279-0.562,0.418-1.001,0.418c-0.292,0-0.546-0.047-0.771-0.15c-0.234-0.117-0.442-0.283-0.63-0.516v0.566h-1.492v-10.01
		h1.492v3.225c0.193-0.225,0.41-0.395,0.632-0.512c0.227-0.123,0.451-0.176,0.68-0.176c0.472,0,0.826,0.152,1.078,0.467
		c0.247,0.32,0.366,0.779,0.366,1.381V207.682L82.854,207.682z M87.966,207.127c0,0.754-0.187,1.328-0.562,1.713
		c-0.369,0.381-0.917,0.568-1.646,0.568c-0.664,0-1.185-0.201-1.562-0.605c-0.381-0.402-0.574-0.963-0.574-1.676v-3.312
		c0-0.645,0.214-1.168,0.63-1.572c0.418-0.406,0.955-0.604,1.616-0.604c0.678,0,1.197,0.188,1.536,0.561
		c0.362,0.375,0.543,0.91,0.543,1.615v1.877h-2.813v1.391c0,0.381,0.048,0.664,0.144,0.812c0.105,0.148,0.272,0.225,0.501,0.225
		c0.25,0,0.417-0.062,0.521-0.193c0.098-0.129,0.146-0.404,0.146-0.844v-0.336h1.521V207.127z"/>
</g>
<g>
	<path fill="#FFFFFF" d="M29.821,183.806c0,0-6.606,0-8.808,0c-3.946,0-7.665,2.994-7.665,6.459c0,3.542,2.693,6.396,6.708,6.396
		c0.281,0,0.551-0.001,0.817-0.021c-0.258,0.503-0.446,1.06-0.446,1.646c0,0.985,0.53,1.784,1.2,2.438
		c-0.506,0-0.997,0.013-1.527,0.013c-4.889,0-8.654,3.117-8.654,6.346c0,3.188,4.127,5.17,9.02,5.17
		c5.574,0,8.652-3.155,8.652-6.344c0-2.549-0.754-4.081-3.078-5.728c-0.795-0.561-2.317-1.93-2.317-2.733
		c0-0.958,0.271-1.416,1.688-2.521c1.457-1.144,2.486-2.74,2.486-4.604c0-2.213-0.984-4.373-2.842-5.09h2.795L29.821,183.806z
		 M26.747,205.354c0.069,0.295,0.108,0.598,0.108,0.909c0,2.57-1.657,4.578-6.407,4.578c-3.382,0-5.824-2.148-5.824-4.711
		c0-2.52,3.029-4.617,6.41-4.578c0.787,0.009,1.521,0.138,2.19,0.351C25.058,203.183,26.376,203.903,26.747,205.354z
		 M21.335,195.769c-2.268-0.079-4.428-2.539-4.817-5.519c-0.394-2.979,1.131-5.256,3.399-5.193c2.265,0.068,4.424,2.46,4.813,5.439
		C25.122,193.478,23.602,195.848,21.335,195.769z"/>
	<polygon fill="#FFFFFF" points="36.864,187.507 36.864,183.817 35.388,183.817 35.388,187.507 31.698,187.507 31.698,188.981 
		35.388,188.981 35.388,192.67 36.864,192.67 36.864,188.981 40.553,188.981 40.553,187.507 	"/>
</g>
</svg>
